<?xml version="1.0" encoding="UTF-8"?>
<svg xmlns="http://www.w3.org/2000/svg" xmlns:xlink="http://www.w3.org/1999/xlink" width="150pt" height="150pt" viewBox="0 0 150 150" version="1.1">
<g id="surface1">
<path style=" stroke:none;fill-rule:nonzero;fill:rgb(0%,67.45098%,91.764706%);fill-opacity:1;" d="M 146.113281 68.816406 L 146.113281 83.40625 L 135.429688 84.453125 C 134.378906 89.183594 132.480469 93.6875 129.828125 97.742188 L 136.730469 106.078125 L 126.4375 116.367188 L 118.097656 109.464844 C 114.054688 112.144531 109.550781 114.042969 104.8125 115.066406 L 103.769531 125.882812 L 88.011719 125.882812 L 88.011719 95.144531 L 88.488281 95.144531 C 99 99.96875 111.429688 95.359375 116.257812 84.847656 C 121.082031 74.335938 116.472656 61.90625 105.960938 57.078125 C 100.273438 54.46875 93.714844 54.539062 88.082031 57.269531 L 88.011719 57.269531 L 88.011719 26.34375 L 103.769531 26.34375 L 104.8125 37.15625 C 109.542969 38.207031 114.042969 40.105469 118.097656 42.757812 L 126.4375 35.855469 L 136.597656 46.148438 L 129.695312 54.484375 C 132.375 58.527344 134.273438 63.035156 135.296875 67.777344 Z M 146.113281 68.816406 "/>
<path style=" stroke:none;fill-rule:nonzero;fill:rgb(0%,93.72549%,81.960784%);fill-opacity:1;" d="M 88.011719 95.144531 L 88.011719 103.378906 L 53.628906 103.378906 L 53.367188 103.355469 C 53.40625 102.902344 53.425781 102.445312 53.425781 101.980469 C 53.425781 93.046875 46.183594 85.800781 37.246094 85.800781 C 28.3125 85.800781 21.070312 93.046875 21.070312 101.980469 C 21.070312 102.453125 21.089844 102.917969 21.128906 103.378906 L 15.871094 103.378906 C 9.253906 103.375 3.886719 98.011719 3.886719 91.394531 L 3.886719 81.269531 C 3.886719 75.863281 7.503906 71.128906 12.714844 69.703125 L 40.441406 62.132812 L 57.019531 40.363281 C 60.042969 36.394531 64.746094 34.0625 69.734375 34.0625 L 88.011719 34.0625 Z M 88.011719 95.144531 "/>
<path style=" stroke:none;fill-rule:nonzero;fill:rgb(83.137255%,88.235294%,95.686275%);fill-opacity:1;" d="M 21.128906 103.378906 C 21.089844 102.917969 21.070312 102.453125 21.070312 101.980469 C 21.070312 93.046875 28.3125 85.800781 37.246094 85.800781 C 46.183594 85.800781 53.425781 93.046875 53.425781 101.980469 C 53.425781 102.445312 53.40625 102.902344 53.367188 103.355469 C 52.609375 112.257812 44.777344 118.859375 35.875 118.101562 C 28.03125 117.433594 21.808594 111.21875 21.128906 103.378906 Z M 21.128906 103.378906 "/>
<path style=" stroke:none;fill-rule:nonzero;fill:rgb(3.137255%,21.960784%,38.823529%);fill-opacity:1;" d="M 146.507812 65.007812 L 138.363281 64.226562 C 137.417969 60.941406 136.085938 57.785156 134.398438 54.816406 L 139.550781 48.589844 C 140.804688 47.074219 140.707031 44.859375 139.324219 43.460938 L 129.160156 33.167969 C 127.765625 31.753906 125.523438 31.640625 123.996094 32.910156 L 117.746094 38.082031 C 114.78125 36.398438 111.632812 35.066406 108.359375 34.109375 L 107.574219 26.003906 C 107.382812 24.050781 105.730469 22.5625 103.769531 22.578125 L 91.835938 22.578125 L 91.835938 11.097656 C 91.835938 8.984375 90.125 7.269531 88.011719 7.269531 C 85.898438 7.269531 84.183594 8.984375 84.183594 11.097656 L 84.183594 30.230469 L 69.734375 30.230469 C 63.554688 30.25 57.734375 33.132812 53.976562 38.039062 L 38.183594 58.78125 L 11.675781 66.011719 C 4.800781 67.898438 0.0234375 74.136719 0 81.269531 L 0 91.394531 C 0.0429688 100.121094 7.144531 107.167969 15.871094 107.144531 L 17.9375 107.144531 C 18.867188 110.8125 20.867188 114.125 23.6875 116.65625 C 31.34375 123.75 43.175781 123.742188 50.824219 116.640625 C 53.636719 114.113281 55.632812 110.808594 56.5625 107.144531 L 84.183594 107.144531 L 84.183594 138.902344 C 84.183594 141.015625 85.898438 142.730469 88.011719 142.730469 C 90.125 142.730469 91.835938 141.015625 91.835938 138.902344 L 91.835938 129.71875 L 103.769531 129.71875 C 105.738281 129.714844 107.386719 128.21875 107.578125 126.253906 L 108.363281 118.121094 C 111.644531 117.175781 114.800781 115.847656 117.769531 114.164062 L 123.996094 119.316406 C 125.515625 120.574219 127.746094 120.46875 129.140625 119.074219 L 139.433594 108.785156 C 140.832031 107.390625 140.9375 105.160156 139.675781 103.640625 L 134.503906 97.390625 C 136.1875 94.425781 137.519531 91.273438 138.476562 88 L 146.515625 87.214844 C 148.480469 87.027344 149.984375 85.382812 150 83.40625 L 150 68.816406 C 149.984375 66.839844 148.476562 65.195312 146.507812 65.007812 Z M 91.835938 59.871094 C 100.808594 56.898438 110.488281 61.761719 113.460938 70.730469 C 116.433594 79.703125 111.570312 89.386719 102.601562 92.355469 C 99.105469 93.515625 95.332031 93.515625 91.835938 92.355469 Z M 49.554688 103.03125 C 48.972656 109.832031 42.992188 114.867188 36.195312 114.285156 C 30.210938 113.773438 25.464844 109.03125 24.941406 103.050781 C 24.941406 103.042969 24.941406 103.035156 24.941406 103.027344 C 24.914062 102.699219 24.898438 102.34375 24.898438 101.980469 C 24.898438 95.15625 30.425781 89.628906 37.25 89.628906 C 44.070312 89.628906 49.601562 95.15625 49.601562 101.980469 C 49.597656 102.335938 49.585938 102.6875 49.554688 103.035156 Z M 57.101562 99.488281 C 55.761719 88.527344 45.792969 80.71875 34.828125 82.058594 C 25.699219 83.167969 18.507812 90.363281 17.394531 99.488281 L 15.871094 99.488281 C 11.367188 99.519531 7.691406 95.894531 7.652344 91.394531 L 7.652344 81.269531 C 7.671875 77.585938 10.140625 74.367188 13.691406 73.394531 L 41.4375 65.824219 C 42.25 65.601562 42.96875 65.117188 43.480469 64.449219 L 60.058594 42.675781 C 62.367188 39.664062 65.941406 37.894531 69.734375 37.882812 L 84.183594 37.882812 L 84.183594 99.488281 Z M 142.347656 79.9375 L 135.085938 80.644531 C 133.429688 80.804688 132.0625 82.015625 131.703125 83.640625 C 130.746094 87.921875 129.023438 91.996094 126.621094 95.667969 C 125.714844 97.070312 125.820312 98.894531 126.882812 100.183594 L 131.5625 105.835938 L 126.195312 111.199219 L 120.539062 106.515625 C 119.238281 105.4375 117.382812 105.34375 115.976562 106.28125 C 112.332031 108.691406 108.269531 110.402344 104 111.328125 C 102.375 111.679688 101.164062 113.046875 101.003906 114.703125 L 100.292969 122.066406 L 91.835938 122.066406 L 91.835938 100.289062 C 105.1875 103.261719 118.421875 94.84375 121.394531 81.492188 C 124.367188 68.140625 115.949219 54.90625 102.597656 51.9375 C 99.054688 51.148438 95.378906 51.148438 91.835938 51.9375 L 91.835938 30.230469 L 100.292969 30.230469 L 101.003906 37.554688 C 101.164062 39.207031 102.378906 40.566406 104 40.910156 C 108.28125 41.863281 112.355469 43.582031 116.023438 45.980469 C 117.429688 46.886719 119.253906 46.773438 120.539062 45.710938 L 126.179688 41.039062 L 131.445312 46.375 L 126.75 52.046875 C 125.671875 53.347656 125.578125 55.203125 126.515625 56.609375 C 128.925781 60.253906 130.636719 64.316406 131.5625 68.585938 C 131.925781 70.21875 133.300781 71.429688 134.964844 71.585938 L 142.351562 72.292969 Z M 142.347656 79.9375 "/>
</g>
</svg>
